<?xml version="1.0" encoding="utf-8"?>
<!-- Generator: Adobe Illustrator 25.2.1, SVG Export Plug-In . SVG Version: 6.00 Build 0)  -->
<svg version="1.1" id="Слой_1" xmlns="http://www.w3.org/2000/svg" xmlns:xlink="http://www.w3.org/1999/xlink" x="0px" y="0px"
	 viewBox="0 0 572 258" style="enable-background:new 0 0 572 258;" xml:space="preserve">
<style type="text/css">
	.st0{fill:#FFFFFF;}
</style>
<g transform="translate(0.000000,258.000000) scale(0.100000,-0.100000)">
	<path class="st0" d="M1677,2460c-137-24-296-92-412-174c-131-94-265-262-329-413l-24-58l63-21c145-49,242-161,275-318l11-56h1599
		h1599l11,56c33,157,130,269,275,318l63,21l-24,58c-43,101-107,198-188,284c-129,137-269,224-451,279c-83,26-103,28-265,28
		c-204,0-273-14-427-89l-93-44l-92,44c-150,72-226,89-408,89s-258-17-407-89l-93-44l-92,44c-139,67-226,87-398,91
		C1790,2467,1703,2465,1677,2460z"/>
	<path class="st0" d="M740,1775c-76-22-129-55-188-120c-69-76-96-145-96-255c0-121,27-185,113-271c68-68,126-98,219-114l42-7v92
		c0,127,13,164,80,230c66,67,103,80,229,80h92l-6,38c-18,104-54,171-131,241C1001,1774,860,1808,740,1775z"/>
	<path class="st0" d="M4782,1775c-73-20-108-40-163-92c-71-66-107-134-124-235l-6-38h92c126,0,163-13,229-80c67-66,80-103,80-230
		v-92l43,7c92,16,150,46,218,114c86,86,113,150,113,271s-27,185-113,271c-50,50-81,71-126,88C4948,1788,4851,1794,4782,1775z"/>
	<path class="st0" d="M993,1369c-49-24-99-77-119-125s-20-550,0-598c21-49,71-101,121-125l45-21h1820h1820l45,21
		c54,25,111,89,126,139c6,22,9,138,7,307l-3,271l-30,43c-17,24-50,57-74,74l-43,30l-1836,3l-1837,2L993,1369z"/>
	<path class="st0" d="M1039,462c-24-63,4-152,62-193c20-14,52-24,85-27c82-7,132,27,178,119c20,40,36,82,36,95v23l-176,3l-176,3
		L1039,462z"/>
	<path class="st0" d="M4493,482l-173-2v-24c0-13,16-55,36-95c28-57,44-76,80-97c119-70,265,22,252,158c-3,27-9,52-14,56
		S4587,484,4493,482z"/>
</g>
</svg>
